<mxfile host="app.diagrams.net" agent="Mozilla/5.0 (Windows NT 10.0; Win64; x64) AppleWebKit/537.36 (KHTML, like Gecko) Chrome/129.0.0.0 Safari/537.36" version="24.9.1">
  <diagram name="PÃ¡gina-1" id="kJ8wvjdbHU8hVIodm-Dk">
    <mxGraphModel>
      <root>
        <mxCell id="0" />
        <mxCell id="1" parent="0" />
        <mxCell id="2" value="Microservice 3" style="whiteSpace=wrap;strokeWidth=2;" vertex="1" parent="1">
          <mxGeometry x="8" y="157" width="188" height="168" as="geometry" />
        </mxCell>
        <mxCell id="3" value="Microservice 2" style="whiteSpace=wrap;strokeWidth=2;" vertex="1" parent="1">
          <mxGeometry x="216" y="157" width="188" height="168" as="geometry" />
        </mxCell>
        <mxCell id="4" value="Microservice 1" style="whiteSpace=wrap;strokeWidth=2;" vertex="1" parent="1">
          <mxGeometry x="425" y="157" width="188" height="168" as="geometry" />
        </mxCell>
        <mxCell id="5" value="API Gateway" style="whiteSpace=wrap;strokeWidth=2;" vertex="1" parent="1">
          <mxGeometry x="62" y="8" width="485" height="99" as="geometry" />
        </mxCell>
        <mxCell id="6" value="API Gateway" style="whiteSpace=wrap;strokeWidth=2;" vertex="1" parent="1">
          <mxGeometry x="234" y="33" width="152" height="49" as="geometry" />
        </mxCell>
        <mxCell id="7" value="Microservice 1" style="ellipse;aspect=fixed;strokeWidth=2;whiteSpace=wrap;" vertex="1" parent="1">
          <mxGeometry x="460" y="182" width="118" height="118" as="geometry" />
        </mxCell>
        <mxCell id="8" value="Microservice 2" style="ellipse;aspect=fixed;strokeWidth=2;whiteSpace=wrap;" vertex="1" parent="1">
          <mxGeometry x="251" y="182" width="118" height="118" as="geometry" />
        </mxCell>
        <mxCell id="9" value="Microservice 3" style="ellipse;aspect=fixed;strokeWidth=2;whiteSpace=wrap;" vertex="1" parent="1">
          <mxGeometry x="43" y="182" width="118" height="118" as="geometry" />
        </mxCell>
        <mxCell id="10" value="" style="curved=1;startArrow=none;endArrow=block;exitX=1;exitY=0.87;entryX=0.5;entryY=0;" edge="1" parent="1" source="6" target="7">
          <mxGeometry relative="1" as="geometry">
            <Array as="points">
              <mxPoint x="519" y="107" />
            </Array>
          </mxGeometry>
        </mxCell>
        <mxCell id="11" value="" style="curved=1;startArrow=none;endArrow=block;exitX=0.5;exitY=1;entryX=0.5;entryY=0;" edge="1" parent="1" source="6" target="8">
          <mxGeometry relative="1" as="geometry">
            <Array as="points" />
          </mxGeometry>
        </mxCell>
        <mxCell id="12" value="" style="curved=1;startArrow=none;endArrow=block;exitX=0;exitY=0.87;entryX=0.5;entryY=0;" edge="1" parent="1" source="6" target="9">
          <mxGeometry relative="1" as="geometry">
            <Array as="points">
              <mxPoint x="102" y="107" />
            </Array>
          </mxGeometry>
        </mxCell>
      </root>
    </mxGraphModel>
  </diagram>
</mxfile>
